<?xml version="1.0" encoding="utf-8"?>
<!-- Generator: Adobe Illustrator 16.0.0, SVG Export Plug-In . SVG Version: 6.00 Build 0)  -->
<!DOCTYPE svg PUBLIC "-//W3C//DTD SVG 1.1//EN" "http://www.w3.org/Graphics/SVG/1.1/DTD/svg11.dtd">
<svg version="1.1" id="Capa_1" xmlns="http://www.w3.org/2000/svg" xmlns:xlink="http://www.w3.org/1999/xlink" x="0px" y="0px"
	 width="1000px" height="1000px" viewBox="0 0 1000 1000" enable-background="new 0 0 1000 1000" xml:space="preserve">
<g>
	<path fill-rule="evenodd" clip-rule="evenodd" fill="#FFFFFF" d="M638.302,493.401c-8.263-7.849-9.767-13.764-6.103-21.219
		c3.643-7.459,11.277-11.42,19.846-10.28c8.235,1.099,11.41,6.321,8.655,14.217c-0.34,0.999-0.499,2.056-0.972,4.028
		c2.931,0.314,5.56,1.078,8.056,0.781c8.275-0.975,16.524-2.18,24.729-3.589c4.972-0.851,9.621-0.819,12.746,3.669
		c3.275,4.698,1.842,9.451-1.187,13.663c-7.093,9.874-14.449,19.552-21.56,29.415c-2.213,3.075-4.307,6.345-5.776,9.813
		c-0.813,1.898-1.083,5.123,0.008,6.403c1.004,1.2,4.624,1.541,6.223,0.662c7.428-4.082,14.668-8.562,21.773-13.206
		c6.332-4.129,10.137-10.165,13.929-16.804c10.149-17.781,21.539-34.856,32.446-52.206c0.566-0.911,1.141-1.806,2.48-3.895
		c-13.092,2.33-25.16,4.339-37.165,6.645c-8.887,1.71-16.49,0.269-22.432-7.215c-3.329-4.198-3.562-8.13-0.24-12.286
		c1.595-1.981,3.221-3.931,4.843-5.881c3.279-3.934,6.82-4.396,12.034-3.117c6.327,1.557,13.202,1.422,19.81,1.144
		c11.593-0.48,23.177-1.502,34.737-2.623c1.985-0.194,4.328-1.582,5.631-3.147c4.046-4.878,7.945-9.938,11.386-15.256
		c3.098-4.795,7.397-6.18,12.572-5.756c5.965,0.487,11.938,1.079,17.843,2.017c2.116,0.334,4.049,1.806,6.615,3.023
		c-4.413,6.254-8.321,11.784-12.868,18.224c18.59,2.011,36.089,3.903,53.585,5.795c0.14,0.53,0.282,1.065,0.434,1.601
		c-4.891,4.151-9.951,8.107-14.591,12.521c-4.051,3.865-7.816,4.877-13.826,4.035c-12.326-1.734-24.932-1.524-37.426-1.818
		c-1.596-0.04-3.854,1.291-4.761,2.67c-12.84,19.553-25.659,39.127-38.095,58.943c-3.05,4.844-5.171,10.43-6.785,15.942
		c-0.741,2.533-0.102,6.579,1.574,8.351c1.367,1.434,5.885,1.579,7.869,0.389c8.682-5.181,17.035-10.923,25.267-16.798
		c1.559-1.109,1.977-3.77,3.033-5.657c14.107-25.256,34.38-43.555,62.017-52.482c7.294-2.348,15.827-2.214,23.554-1.256
		c5.039,0.627,9.647,4.787,15.514,7.934c3.735-5.5,10.504-4.373,17.321-2.339c7.243,2.162,8.948,6.83,4.859,13.213
		c-7.546,11.749-15.281,23.373-22.666,35.214c-1.796,2.859-2.971,6.272-3.688,9.59c-1.465,6.739,2.588,10.742,8.924,8.201
		c6.316-2.535,12.478-5.941,17.966-9.99c6.523-4.84,12.501-10.509,18.249-16.297c3.553-3.596,6.471-3.138,9.923-0.468
		c3.935,3.041,2.104,5.892-0.217,8.786c-13.521,16.785-29.138,31.1-49.583,38.767c-6.94,2.606-14.839,3.905-22.238,3.735
		c-11.865-0.258-17.332-7.762-16.134-19.682c0.112-1.056,0.229-2.12,0.331-3.056c-5.66,4.261-10.944,8.904-16.849,12.519
		c-7.08,4.324-14.334,8.79-22.132,11.38c-16.758,5.559-26.886-0.093-31.959-16.378c-7.241,4.655-14.249,9.778-21.828,13.851
		c-6.003,3.229-12.502,6.046-19.132,7.515c-17.301,3.846-26.896-3.652-28.229-21.794c-5.065,3.604-9.776,7.08-14.612,10.397
		c-10.245,7.06-20.99,13.059-33.703,14.267c-3.033,0.288-6.195,0.224-9.189-0.297c-9.445-1.651-14.426-8.546-13.162-18.062
		c1.612-12.262,9.107-21.578,16.137-31.019c5.381-7.24,11.256-14.123,17.429-21.802c-6.729-0.146-12.538-0.417-18.354-0.254
		c-0.927,0.023-1.915,1.933-2.673,3.102c-13.176,20.179-27.571,39.427-47.637,53.225c-8.852,6.078-18.941,10.581-28.91,14.716
		c-4.418,1.84-10.021,1.677-14.956,1.209c-11.506-1.105-16.58-8.098-14.987-19.479c0.149-1.061,0.242-2.123,0.31-2.731
		c-8.867,6.639-17.526,14.025-27.082,19.986c-5.842,3.636-12.872,6.083-19.675,7.309c-13.56,2.438-20.48-2.063-26.492-14.436
		c-7.889,5.77-16.057,11.71-24.204,17.679c-17.475,12.835-35.657,24.399-56.397,31.35c-16.125,5.415-32.473,7.161-49.316,3.646
		c-17.363-3.615-29.955-16.66-32.591-34.391c-2.265-15.181,0.374-29.839,6.263-43.666c20.817-48.854,55.292-84.699,103.967-106.304
		c15.195-6.746,31.256-10.515,48.182-9.474c1.808,0.114,4.445-1.553,5.505-3.172c8.861-13.478,17.697-26.987,26.043-40.785
		c13.286-21.935,28.357-42.225,50.132-56.544c14.609-9.617,30.471-15.362,48.3-13.33c17.269,1.964,24.393,15.133,15.537,30.06
		c-4.057,6.828-9.906,13.094-16.207,17.994c-15.158,11.773-33.643,16.54-51.392,22.706c-0.395-0.527-0.806-1.051-1.209-1.579
		c2.744-2.106,5.414-4.317,8.232-6.303c10.613-7.492,21.739-14.351,31.72-22.601c4.479-3.705,7.286-9.869,9.787-15.4
		c2.396-5.302-0.802-9.021-6.297-7.461c-5.123,1.455-10.303,3.658-14.638,6.695c-10.228,7.174-18.079,16.781-24.661,27.319
		c-13.903,22.256-27.634,44.625-41.453,66.971c15.548,4.714,31.455,3.469,47.378-1.7c5.943-1.929,9.333-4.618,12.09-10.998
		c10.492-24.229,28.63-41.373,53.635-50.218c11.249-3.984,22.935-4.442,32.852,5.553c5.869-7.54,12.821-4.39,19.705-1.822
		c3.445,1.289,4.457,3.404,2.23,6.713c-5.873,8.731-11.823,17.409-17.413,26.317c-2.768,4.433-5.144,9.199-7.023,14.071
		c-0.787,2.065-0.751,5.885,0.531,6.956c1.642,1.359,5.615,1.879,7.378,0.792c7.523-4.624,14.69-9.855,21.793-15.115
		c2.602-1.923,4.738-4.5,7.005-6.856c3.104-3.231,6.232-2.344,9.149,0.08c3.473,2.896,0.664,5.188-1.164,7.286
		c-10.756,12.385-21.922,24.467-37.104,31.445c-5.951,2.731-12.745,4.52-19.262,4.925c-11.433,0.71-15.902-4.944-16.64-19.673
		c-1.637,1.52-2.864,2.645-4.087,3.78c-8.419,7.83-17.085,15.365-28.631,18.175c-13.83,3.376-21.868-0.74-27.396-14.206
		c-1.448,1.649-3.391,2.88-3.748,4.479c-1.076,4.667-4.357,6.808-8.22,8.569c-12.46,5.685-25.229,6.01-38.247,2.237
		c-2.196-0.642-4.47-1.008-7.004-1.568c0.127,16.329-6.944,28.792-17.978,39.312c-14.059,13.388-30.222,22.559-49.999,24.036
		c-6.268,0.468-13.063,0.534-16.443-5.788c-3.302-6.206,0.841-11.47,4.528-16.291c3.962-5.185,4.867-5.033,8.904-0.351
		c0.927,1.063,3.286,1.384,4.925,1.258c13.303-1.063,33.666-18.426,37.057-31.415c1.933-7.39-2.317-13.486-9.962-12.146
		c-8.956,1.58-18.39,3.78-26.185,8.224c-35.707,20.346-61.204,50.193-77.209,87.915c-2.837,6.662-3.945,14.422-4.196,21.733
		c-0.526,15.019,9.267,24.001,24.279,23.559c19.75-0.592,37.05-8.549,53.264-18.792c12.253-7.74,23.746-16.671,35.385-25.347
		c2.167-1.614,3.706-4.34,5.011-6.83c15.733-29.979,38.639-51.551,71.947-60.366c12.172-3.223,24.245-2.848,33.774,8.228
		c7.249-7.046,15.116-4.95,22.875-1.592c4.988,2.159,5.753,4.737,2.718,9.354c-6.773,10.308-14.014,20.308-20.604,30.725
		c-3.184,5.008-5.808,10.506-7.732,16.107c-0.906,2.643-0.643,7.232,1.044,8.772c1.748,1.592,6.623,1.759,8.859,0.424
		c8.044-4.801,16.536-9.521,23.047-16.07C619.822,516.614,628.682,504.794,638.302,493.401z M567.663,493.058
		c-4.093-5.334-5.124-5.989-11.04-4.061c-24.114,7.849-39.369,25.33-50.459,47.168c-0.624,1.245-0.762,2.804-0.892,4.23
		c-0.468,5.523,2.13,8.322,7.377,6.818c4.397-1.255,8.813-3.396,12.503-6.121C542.729,528.104,556.1,511.327,567.663,493.058z
		 M870.812,485.382c-4.087-6.421-5.549-7.133-12.24-4.479c-20.484,8.134-35.157,22.611-44.916,42.183
		c-1.091,2.194-1.7,4.838-1.76,7.299c-0.12,4.782,2.735,7.146,7.345,5.892c3.248-0.879,6.455-2.418,9.282-4.273
		C846.554,520.187,858.896,503.185,870.812,485.382z M640.688,377.01c-2.274-4.374-5.518-5.095-10.004-3.422
		c-18.592,6.934-30.795,20.482-39.527,37.688c-0.559,1.102-0.775,2.431-0.912,3.676c-0.537,5.117,3.035,8.358,7.668,6.256
		c4.721-2.141,9.32-4.928,13.287-8.248C623.277,402.85,632.442,390.245,640.688,377.01z"/>
	<path fill-rule="evenodd" clip-rule="evenodd" fill="#FFFFFF" d="M267.915,710.014c24.992-19.001,53.533-30.762,82.424-41.906
		c-16.478,2.103-32.914,4.675-49.451,6.204c-59.986,5.563-119.928,7.104-179.557-4.149c-20.747-3.915-40.86-9.714-59.041-20.743
		c-14.243-8.645-24.554-20.582-23.759-38.176c0.364-7.914,2.948-16.355,6.71-23.394c14.277-26.69,38.3-41.929,65.448-53.032
		c2.397-0.981,4.896-1.726,7.926-1.439c-5.532,3.392-11.131,6.666-16.583,10.195c-19.339,12.531-36.387,27.373-47.49,48.052
		c-5.896,10.994-7.451,22.346-2.452,34.131c0.531,1.254,1.316,2.396,2.416,3.604c-6.931-22.879,5.2-38.684,19.596-53.417
		c13.686-14.003,30.144-24.001,48.228-32.103c1.556,6.603,2.968,12.657,4.378,18.653c-7.795,5.515-16.217,10.466-23.378,16.831
		c-7.418,6.6-14.633,13.891-20.146,22.089c-10.135,15.056-6.299,29.512,9.209,38.893c12.629,7.645,26.77,11.188,41.113,13.612
		c47.308,7.979,94.859,6.813,142.086,0.638c55.239-7.233,110.137-17.049,165.282-25.01c59.06-8.532,118.085-17.602,177.397-23.834
		c48.093-5.051,96.574-6.226,144.879-9.143c39.865-2.418,79.949-2.714,119.264-10.92c17.893-3.735,35.972-7.661,51.343-18.199
		c6.196-4.243,11.524-10.175,16.111-16.196c4.656-6.136,5.026-13.637,2.536-21.08c-0.477-1.446-0.793-2.948-1.301-4.838
		c9.319,3.912,12.234,18.149,9.329,26.755c-3.519,10.428-10.138,18.555-18.757,24.993c-21.073,15.732-44.381,26.752-69.929,33.305
		c-41.286,10.581-83.449,15.822-125.621,20.933c-89.332,10.827-178.634,21.971-267.343,37.182
		c-41.153,7.054-82.203,14.765-123.189,22.771c-28.29,5.527-56.383,12.086-84.569,18.172
		C269.996,709.673,268.953,709.824,267.915,710.014z M914.926,591.069c-0.197-0.443-0.405-0.879-0.603-1.316
		c-9.937,2.968-19.792,6.267-29.828,8.853c-31.663,8.146-64.004,12.147-96.433,15.756c-61.606,6.864-123.332,12.956-184.685,21.622
		c-82.152,11.6-163.672,26.999-243.994,48.229c-6.748,1.779-13.478,3.618-20.228,5.431c6.612,0.341,13.101,0.185,19.313-1.195
		c15.73-3.497,31.262-7.852,47-11.303c63.928-14.023,128.508-24.518,193.327-33.264c59.484-8.019,119.176-14.515,178.739-21.948
		c33.432-4.179,66.767-9.18,99.29-18.271C889.692,600.059,902.237,595.298,914.926,591.069z"/>
	<path fill-rule="evenodd" clip-rule="evenodd" fill="#FFFFFF" d="M193.992,407.737c-0.172-6.089-0.213-12.185-0.537-18.267
		c-0.38-7.168-0.975-14.335-1.569-21.498c-0.424-5.151,1.684-8.404,6.938-8.738c5.434-0.341,9.152,1.923,9.565,7.93
		c0.721,10.75,1.402,21.501,2.241,32.248c0.188,2.46,0.954,4.881,1.451,7.324c0.711-0.079,1.406-0.161,2.108-0.244
		c0.067-2.271,0.337-4.554,0.184-6.808c-0.696-10.308-1.618-20.6-2.217-30.911c-0.135-2.334,0.181-5.041,1.302-6.999
		c0.964-1.678,3.447-3.54,5.139-3.426c1.416,0.087,3.672,2.788,3.849,4.507c1.837,18.312,4.064,36.637,4.58,55
		c0.21,7.871-3.31,16.013-10.593,20.916c-3.844,2.587-4.223,5.685-3.789,9.767c2.929,27.918,5.715,55.858,8.516,83.793
		c0.36,3.567,0.814,7.156,0.792,10.729c-0.04,5.4-1.852,10.094-8,10.645c-5.921,0.527-8.7-3.726-9.136-8.773
		c-0.996-11.609-1.3-23.282-2.031-34.92c-1.296-20.626-2.738-41.239-4.05-61.859c-0.215-3.407-1.264-5.278-4.961-6.642
		c-7.233-2.664-11.5-8.823-12.999-16.144c-1.615-7.875-2.378-15.956-3.016-23.991c-0.859-10.96-1.552-21.959-1.614-32.941
		c-0.013-2.584,2.801-5.18,4.322-7.769c2.111,2.521,5.636,4.814,6.086,7.602c1.445,9.06,1.709,18.313,2.579,27.478
		c0.383,4.108,1.11,8.184,1.686,12.27C191.881,407.924,192.931,407.824,193.992,407.737z"/>
	<path fill-rule="evenodd" clip-rule="evenodd" fill="#FFFFFF" d="M245.602,378.978c2.427-10.03,4.27-19.511,7.183-28.647
		c0.991-3.118,4.694-5.37,7.167-8.024c1.843,3.063,4.971,5.978,5.335,9.204c2.781,24.555,5.061,49.157,7.403,73.756
		c0.439,4.692,0.535,9.424,0.656,14.138c0.05,2.015,0.501,4.565-0.503,5.969c-8.761,12.283-3.044,25.565-2.616,38.338
		c0.562,17.275,2.288,34.516,3.506,51.768c0.1,1.345,0.224,2.701,0.134,4.042c-0.402,6.229-3.983,10.394-9.317,10.446
		c-6.361,0.069-8.557-4.513-9.14-9.685c-0.661-5.785-0.598-11.663-0.633-17.502c-0.134-21.789-0.125-43.586-0.329-65.381
		c-0.01-2.06-0.403-5.027-1.754-6.005c-5.314-3.825-6.108-9.323-6.237-14.956C246.018,417.153,245.859,397.858,245.602,378.978z"/>
	<path fill-rule="evenodd" clip-rule="evenodd" fill="#FFFFFF" d="M490.01,370.539c-3.355,10.717-6.811,13.43-16.19,14.214
		c-16.904,1.416-33.446,4.965-48.788,12.109c-10.888,5.07-19.886,2.813-29.422-3.553C423.132,368.18,456.946,371.945,490.01,370.539
		z"/>
	<path fill-rule="evenodd" clip-rule="evenodd" fill="#FFFFFF" d="M470.616,613.726c27.889-11.661,233.043-32.752,247.245-25.257
		C635.062,593.198,552.675,601.821,470.616,613.726z"/>
	<path fill-rule="evenodd" clip-rule="evenodd" fill="#FFFFFF" d="M332.284,294.332c10.61-2.075,16.435-8.616,19.071-18.729
		c2.539,9.821,6.07,18.233,17.766,20.275c-11.115,1.857-16.462,9.718-21.609,20.141
		C346.167,304.902,342.416,297.432,332.284,294.332z M350.593,289.249c-2.34,2.087-4.401,3.93-6.453,5.768
		c0.825-0.605,1.649-1.211,2.483-1.815c1.121,2.621,2.253,5.241,3.38,7.861c1.83-1.673,3.98-3.636,6.001-5.474
		C354.22,293.502,352.531,291.525,350.593,289.249z"/>
	<path fill-rule="evenodd" clip-rule="evenodd" fill="#FFFFFF" d="M152.305,389.621c-1.395-5.309-3.279-10.444-4.054-15.973
		c-1.629-11.534-2.679-23.274-3.942-34.938c-0.12-1.092-0.041-2.24-0.033-3.361c0.155-11.252,1.198-12.984,7.979-14.26
		c0.297,22.588,0.592,45.254,0.894,67.917C152.866,389.207,152.583,389.411,152.305,389.621z"/>
	<path fill-rule="evenodd" clip-rule="evenodd" fill="#FFFFFF" d="M280.555,332.226c-0.857-17.92-13.94-18.592-26.964-19.365
		c0.094-0.452,0.19-0.898,0.285-1.349c6.988-0.124,13.964-0.349,20.944-0.288c0.968,0.007,2.162,1.175,2.871,2.104
		C281.933,318.925,282.187,325.218,280.555,332.226z"/>
	<path fill-rule="evenodd" clip-rule="evenodd" fill="#FFFFFF" d="M169.255,569.991c0.853,17.92,13.938,18.594,26.963,19.365
		c-0.094,0.45-0.192,0.898-0.288,1.348c-6.986,0.127-13.964,0.348-20.942,0.288c-0.968-0.005-2.165-1.176-2.87-2.104
		C167.876,583.29,167.619,576.999,169.255,569.991z"/>
	<path fill-rule="evenodd" clip-rule="evenodd" fill="#FFFFFF" d="M330.107,346.017c-2.868-11.285-1.823-15.007,5.182-18.412
		C340.552,333.279,338.963,338.91,330.107,346.017z"/>
	<path fill-rule="evenodd" clip-rule="evenodd" fill="#FFFFFF" d="M334.179,354.725c1.241-6.94,5.959-9.294,19.833-10.223
		C351.092,349.155,339.429,355.328,334.179,354.725z"/>
	<path fill-rule="evenodd" clip-rule="evenodd" fill="#FFFFFF" d="M357.041,332.059c3.544-3.279,5.341-8.337,10.677-6.667
		c1.535,0.486,3.504,5.28,2.739,6.419C366.771,337.371,362.208,333.206,357.041,332.059z"/>
	<path fill-rule="evenodd" clip-rule="evenodd" fill="#FFFFFF" d="M92.042,602.902c5.271-10.389,14.01-16.524,23.988-21.311
		C108.12,588.626,100.198,595.654,92.042,602.902z"/>
	<path fill-rule="evenodd" clip-rule="evenodd" fill="#FFFFFF" d="M389.356,324.276c-2.499-3.551-4.922-5.782-4.499-6.666
		c0.801-1.713,3.327-3.77,4.935-3.613c1.562,0.15,3.994,2.935,3.961,4.518C393.72,320.237,391.281,321.913,389.356,324.276z"/>
	<path fill-rule="evenodd" clip-rule="evenodd" fill="#FFFFFF" d="M380.472,392.332c-1.315-2.004-2.818-3.67-2.559-4.021
		c1.082-1.455,2.705-2.518,4.118-3.726c0.788,0.951,2.433,2.261,2.214,2.778C383.571,388.94,382.185,390.204,380.472,392.332z"/>
	<path fill-rule="evenodd" clip-rule="evenodd" fill="#FFFFFF" d="M89.773,520.038c3.595-7.215,5.897-15.097,10.484-20.145
		c4.708-5.172,11.641-7.58,16.254-10.376c-4.204-3.584-10.503-6.966-14.217-12.678c-3.727-5.732-4.902-13.791-7.457-21.686
		c-3.421,16.941-11.046,28.559-26.904,30.742C82.583,491.33,89.361,502.978,89.773,520.038z M94.158,475.694
		c2.746,3.884,6.061,8.576,8.935,12.659c-3.594,3.537-7.625,7.507-11.31,11.135c-2.434-3.728-5.645-8.632-8.32-12.728
		C86.723,483.384,90.618,479.36,94.158,475.694z"/>
	<path fill-rule="evenodd" clip-rule="evenodd" fill="#FFFFFF" d="M290.383,588.014c-39.708,6.299-79.594,10.399-119.813,11.189
		c-3.721,0.069-5.3-0.693-5.725-4.837c-5.318-50.263-10.846-100.491-16.329-150.731c-4.401-40.441-8.723-80.889-13.278-121.311
		c-0.579-5.039,1.018-6.494,5.88-6.938c45.506-4.099,90.998-8.393,136.478-12.755c4.416-0.424,6.027,1.078,6.465,5.474
		c1.746,17.656,3.896,35.266,5.762,52.907c4.539,42.772,9.025,85.546,13.481,128.322c1.018,9.694,1.873,19.407,2.87,29.759
		c4.541-5.044,5.231-10.234,4.668-15.753c-3.771-37.075-7.307-74.18-11.375-111.224c-3.008-27.419-6.78-54.755-10.035-82.145
		c-1.378-11.58-3.742-22.33-16.62-26.993c5.337-0.051,9.657,1.977,12.098,6.12c2.752,4.706,5.572,9.844,6.455,15.115
		c2.36,14.115,3.855,28.394,5.423,42.637c4.577,41.848,9.038,83.715,13.497,125.572c1.143,10.729,2.095,21.474,3.215,33.058
		c2.489-3.371,4.601-5.812,6.229-8.546c0.973-1.658,1.853-3.842,1.65-5.668c-6.046-57.206-12.177-114.404-18.473-171.588
		c-0.953-8.696-2.047-17.499-4.362-25.894c-3.37-12.178-14.688-19.676-27.337-19.159c-6.269,0.248-12.51,0.926-18.755,1.523
		c-36.926,3.531-73.849,7.1-110.778,10.652c-12.246,1.187-21.878,6.745-25.986,18.573c-2.03,5.835-2.354,12.711-1.729,18.94
		c0.213,2.133,0.44,4.259,0.653,6.386c0.091,0.134,0.157,0.267,0.174,0.434c0.234,1.853,1.912,18.286,4.333,42.167
		c0.55,5.005,23.091,218.721,25.069,230.971c3.163,19.522,15.574,29.411,35.219,28.302c2.321-0.138,4.632-0.491,6.944-0.788
		c19.889-2.627,39.783-5.304,59.7-7.852c3.03-0.391,54.793-5.388,62.04-12.671c-4.397-8.045-8.644-15.784-13.086-23.878
		C293.903,587.533,292.129,587.737,290.383,588.014z M236.99,288.527c0.99,0.139,1.989,0.273,2.991,0.411
		c-0.102,1.816-0.192,3.629-0.297,5.448c-1.456-0.161-2.921-0.327-4.374-0.491C235.863,292.113,236.433,290.32,236.99,288.527z
		 M192.241,294.772c10.481-1.175,20.978-2.216,31.499-3.029c1.275-0.094,2.669,1.48,4.008,2.282
		c-1.06,0.929-2.027,2.527-3.188,2.679c-10.807,1.444-21.653,2.732-32.504,3.785c-1.417,0.13-2.991-1.295-4.491-2
		c0.02-0.53,0.044-1.052,0.055-1.583C189.159,296.166,190.634,294.947,192.241,294.772z M155.829,605.55
		c-2.122-12.887-3.632-25.881-5.103-38.877c-0.218-4.684-19.738-194.114-20.063-194.05c-0.768-6.903-1.542-13.807-2.339-20.711
		c-1.244-10.854-2.523-21.708-3.688-32.57c-1.06-10.081,4.74-19.748,14.088-22.767c-11.282,7.6-10.307,18.585-9.048,29.855
		c4.243,37.924,25.759,244.188,29.545,272.052c1.99,14.574,8.282,21.302,22.726,25.601
		C169.948,625.825,157.776,617.371,155.829,605.55z"/>
</g>
</svg>
